<svg width="39" height="39" viewBox="0 0 39 39" fill="none" xmlns="http://www.w3.org/2000/svg">
<path d="M27.885 15.8276L18.2325 25.4801C17.928 25.7827 17.5162 25.9526 17.0869 25.9526C16.6576 25.9526 16.2457 25.7827 15.9412 25.4801L11.0662 20.6051C10.9073 20.4563 10.7799 20.2772 10.6914 20.0783C10.603 19.8795 10.5554 19.6648 10.5514 19.4472C10.5474 19.2296 10.5871 19.0134 10.6682 18.8114C10.7493 18.6094 10.8701 18.4258 11.0235 18.2713C11.1769 18.1169 11.3597 17.9948 11.5611 17.9122C11.7625 17.8297 11.9784 17.7885 12.196 17.7909C12.4137 17.7934 12.6286 17.8395 12.8281 17.9265C13.0276 18.0135 13.2076 18.1397 13.3575 18.2976L17.0462 21.9863L25.545 13.4713C25.8495 13.1687 26.2613 12.9988 26.6906 12.9988C27.1199 12.9988 27.5318 13.1687 27.8362 13.4713C27.9992 13.6198 28.1303 13.7999 28.2215 14.0006C28.3126 14.2014 28.362 14.4185 28.3666 14.639C28.3711 14.8594 28.3308 15.0784 28.248 15.2828C28.1652 15.4871 28.0417 15.6725 27.885 15.8276Z" fill="url(#paint0_linear_33_1215)"/>
<path d="M19.5 1.625C14.7593 1.625 10.2127 3.50825 6.86047 6.86047C3.50825 10.2127 1.625 14.7593 1.625 19.5C1.625 24.2407 3.50825 28.7873 6.86047 32.1395C10.2127 35.4917 14.7593 37.375 19.5 37.375C24.2407 37.375 28.7873 35.4917 32.1395 32.1395C35.4917 28.7873 37.375 24.2407 37.375 19.5C37.375 14.7593 35.4917 10.2127 32.1395 6.86047C28.7873 3.50825 24.2407 1.625 19.5 1.625ZM19.5 34.125C17.5794 34.125 15.6776 33.7467 13.9033 33.0117C12.1289 32.2768 10.5166 31.1995 9.15856 29.8414C7.80051 28.4834 6.72324 26.8711 5.98826 25.0967C5.25329 23.3224 4.875 21.4206 4.875 19.5C4.875 17.5794 5.25329 15.6776 5.98826 13.9033C6.72324 12.1289 7.80051 10.5166 9.15856 9.15856C10.5166 7.80051 12.1289 6.72324 13.9033 5.98826C15.6776 5.25329 17.5794 4.875 19.5 4.875C23.3788 4.875 27.0987 6.41584 29.8414 9.15856C32.5842 11.9013 34.125 15.6212 34.125 19.5C34.125 23.3788 32.5842 27.0987 29.8414 29.8414C27.0987 32.5842 23.3788 34.125 19.5 34.125Z" fill="url(#paint1_linear_33_1215)"/>
<defs>
<linearGradient id="paint0_linear_33_1215" x1="19.4756" y1="12.9984" x2="19.4756" y2="25.9513" gradientUnits="userSpaceOnUse">
<stop stop-color="#FFA45C"/>
<stop offset="1" stop-color="#5D5D5A"/>
</linearGradient>
<linearGradient id="paint1_linear_33_1215" x1="19.5" y1="1.625" x2="19.5" y2="37.375" gradientUnits="userSpaceOnUse">
<stop stop-color="#FFA45C"/>
<stop offset="1" stop-color="#5D5D5A"/>
</linearGradient>
</defs>
</svg>
