<?xml version="1.0" encoding="UTF-8"?><svg xmlns="http://www.w3.org/2000/svg" viewBox="0 0 78 75"><defs><style>.cls-1{fill:#9797ff;}.cls-2{opacity:0.1;}.cls-3{fill:#4b4668;}.cls-4,.cls-5,.cls-6{fill:none;stroke-linecap:round;stroke-linejoin:round;stroke-width:3px;}.cls-4{stroke:#4b4668;}.cls-5,.cls-6{stroke:#9797ff;}.cls-6{opacity:0.5;}.cls-7{opacity:0.2;}</style></defs><title>Asset 2</title><g id="Layer_2" data-name="Layer 2"><g id="Layer_1-2" data-name="Layer 1"><rect class="cls-1" x="29.34" y="12.5" width="30" height="7" rx="3.5" ry="3.5" fill="#9797ff"/><g class="cls-2" opacity="0.1"><path class="cls-3" d="M23.34 11.65a13.47 13.47 0 0 0-5.5 10.85V36h33.5a13.47 13.47 0 0 0 10.85-5.5H35.35a12 12 0 0 1-12-12z" fill="#4b4668"/></g><rect class="cls-1" x="13.84" y="49" width="9" height="15" rx="4.5" ry="4.5" fill="#9797ff"/><path class="cls-4" d="M31.34 7.5h20a15 15 0 0 1 15 15 15 15 0 0 1-15 15h-35v-15a15 15 0 0 1 15-15z" fill="none" stroke-linecap="round" stroke-linejoin="round" stroke-width="3px" stroke="#4b4668"/><rect class="cls-4" x="26.34" y="15.5" width="30" height="7" rx="3.5" ry="3.5" fill="none" stroke-linecap="round" stroke-linejoin="round" stroke-width="3px" stroke="#4b4668"/><path class="cls-4" fill="none" stroke-linecap="round" stroke-linejoin="round" stroke-width="3px" stroke="#4b4668" d="M16.34 29.5h18"/><path class="cls-4" fill="none" stroke-linecap="round" stroke-linejoin="round" stroke-width="3px" stroke="#4b4668" d="M40.34 29.5h7"/><path class="cls-5" fill="none" stroke-linecap="round" stroke-linejoin="round" stroke-width="3px" stroke="#9797ff" d="M53.34 29.5h2"/><path class="cls-4" fill="none" stroke-linecap="round" stroke-linejoin="round" stroke-width="3px" stroke="#4b4668" d="M16.34 36.5v28"/><rect class="cls-4" x="11.84" y="51" width="9" height="15" rx="4.5" ry="4.5" fill="none" stroke-linecap="round" stroke-linejoin="round" stroke-width="3px" stroke="#4b4668"/><path class="cls-4" d="M17.34 43.5a5.5 5.5 0 0 0 5.5-5.5" fill="none" stroke-linecap="round" stroke-linejoin="round" stroke-width="3px" stroke="#4b4668"/><path class="cls-4" d="M30.34 6.5V4a2.5 2.5 0 0 1 2.5-2.5 2.5 2.5 0 0 1 2.5 2.5v2.5" fill="none" stroke-linecap="round" stroke-linejoin="round" stroke-width="3px" stroke="#4b4668"/><circle class="cls-6" cx="4" cy="8.5" r="2.5" fill="none" stroke-linecap="round" stroke-linejoin="round" stroke-width="3px" stroke="#9797ff" opacity="0.5"/><g class="cls-7" opacity="0.2"><path class="cls-4" fill="none" stroke-linecap="round" stroke-linejoin="round" stroke-width="3px" stroke="#4b4668" d="M35.85 44.77v5"/><path class="cls-4" fill="none" stroke-linecap="round" stroke-linejoin="round" stroke-width="3px" stroke="#4b4668" d="M38.35 47.27h-5"/></g><circle class="cls-6" cx="74" cy="18.5" r="2.5" fill="none" stroke-linecap="round" stroke-linejoin="round" stroke-width="3px" stroke="#9797ff" opacity="0.5"/><path class="cls-4" fill="none" stroke-linecap="round" stroke-linejoin="round" stroke-width="3px" stroke="#4b4668" d="M13.34 65.5v6"/><path class="cls-4" fill="none" stroke-linecap="round" stroke-linejoin="round" stroke-width="3px" stroke="#4b4668" d="M19.34 65.5v4"/><path class="cls-4" fill="none" stroke-linecap="round" stroke-linejoin="round" stroke-width="3px" stroke="#4b4668" d="M19.34 73.5"/></g></g><metadata><rdf:RDF xmlns:rdf="http://www.w3.org/1999/02/22-rdf-syntax-ns#" xmlns:rdfs="http://www.w3.org/2000/01/rdf-schema#" xmlns:dc="http://purl.org/dc/elements/1.1/"><rdf:Description about="https://iconscout.com/legal#licenses" dc:title="asset" dc:description="asset" dc:publisher="Iconscout" dc:date="2017-09-26" dc:format="image/svg+xml" dc:language="en"><dc:creator><rdf:Bag><rdf:li>Arzu Sendag</rdf:li></rdf:Bag></dc:creator></rdf:Description></rdf:RDF></metadata></svg>