<?xml version="1.0" encoding="UTF-8"?><svg xmlns="http://www.w3.org/2000/svg" viewBox="0 0 61.42 68"><defs><style>.cls-1{opacity:0.1;}.cls-2{fill:#4b4668;}.cls-3,.cls-5,.cls-7{fill:none;stroke-linecap:round;stroke-linejoin:round;stroke-width:3px;}.cls-3{stroke:#4b4668;}.cls-4{fill:#9797ff;}.cls-5,.cls-7{stroke:#9797ff;}.cls-6{opacity:0.2;}.cls-7{opacity:0.5;}</style></defs><title>Asset 8</title><g id="Layer_2" data-name="Layer 2"><g id="Layer_1-2" data-name="Layer 1"><g class="cls-1" opacity="0.1"><path class="cls-2" d="M50.42 65.5h-34a2.5 2.5 0 0 1-2.49-2.72l4-45.86a2.6 2.6 0 0 1 2.46-2.43 2.5 2.5 0 0 1 2.53 2.72l-3.31 37.86a5 5 0 0 0 5 5.43h25.81" fill="#4b4668"/></g><path class="cls-3" d="M48.67 66.5H16.16a3 3 0 0 1-3-3.23l3.38-43.16a5 5 0 0 1 5-4.61h23.6a3 3 0 0 1 3 2.77l3.53 45a3 3 0 0 1-3 3.23z" fill="none" stroke-linecap="round" stroke-linejoin="round" stroke-width="3px" stroke="#4b4668"/><path class="cls-4" d="M45.41 14a8 8 0 0 0-16 0z" fill="#9797ff"/><path class="cls-3" d="M25.92 14a6.5 6.5 0 0 1 13 0" fill="none" stroke-linecap="round" stroke-linejoin="round" stroke-width="3px" stroke="#4b4668"/><path class="cls-3" fill="none" stroke-linecap="round" stroke-linejoin="round" stroke-width="3px" stroke="#4b4668" d="M24.92 25h15"/><path class="cls-5" fill="none" stroke-linecap="round" stroke-linejoin="round" stroke-width="3px" stroke="#9797ff" d="M24.92 31h5"/><circle class="cls-2" cx="24.42" cy="41.5" r="1.5" fill="#4b4668"/><circle class="cls-2" cx="32.42" cy="41.5" r="1.5" fill="#4b4668"/><circle class="cls-2" cx="40.42" cy="41.5" r="1.5" fill="#4b4668"/><circle class="cls-2" cx="20.42" cy="49.5" r="1.5" fill="#4b4668"/><circle class="cls-2" cx="28.42" cy="49.5" r="1.5" fill="#4b4668"/><circle class="cls-2" cx="36.42" cy="49.5" r="1.5" fill="#4b4668"/><circle class="cls-2" cx="44.42" cy="49.5" r="1.5" fill="#4b4668"/><circle class="cls-2" cx="24.42" cy="57.5" r="1.5" fill="#4b4668"/><circle class="cls-2" cx="32.42" cy="57.5" r="1.5" fill="#4b4668"/><circle class="cls-2" cx="40.42" cy="57.5" r="1.5" fill="#4b4668"/><path class="cls-5" fill="none" stroke-linecap="round" stroke-linejoin="round" stroke-width="3px" stroke="#9797ff" d="M34.92 31"/><g class="cls-6" opacity="0.2"><path class="cls-3" fill="none" stroke-linecap="round" stroke-linejoin="round" stroke-width="3px" stroke="#4b4668" d="M4 34.42v5"/><path class="cls-3" fill="none" stroke-linecap="round" stroke-linejoin="round" stroke-width="3px" stroke="#4b4668" d="M6.5 36.92h-5"/></g><circle class="cls-7" cx="19.42" cy="4" r="2.5" fill="none" stroke-linecap="round" stroke-linejoin="round" stroke-width="3px" stroke="#9797ff" opacity="0.5"/><circle class="cls-7" cx="57.42" cy="34" r="2.5" fill="none" stroke-linecap="round" stroke-linejoin="round" stroke-width="3px" stroke="#9797ff" opacity="0.5"/></g></g><metadata><rdf:RDF xmlns:rdf="http://www.w3.org/1999/02/22-rdf-syntax-ns#" xmlns:rdfs="http://www.w3.org/2000/01/rdf-schema#" xmlns:dc="http://purl.org/dc/elements/1.1/"><rdf:Description about="https://iconscout.com/legal#licenses" dc:title="asset" dc:description="asset" dc:publisher="Iconscout" dc:date="2017-09-26" dc:format="image/svg+xml" dc:language="en"><dc:creator><rdf:Bag><rdf:li>Arzu Sendag</rdf:li></rdf:Bag></dc:creator></rdf:Description></rdf:RDF></metadata></svg>