<?xml version="1.0" encoding="UTF-8"?><svg xmlns="http://www.w3.org/2000/svg" viewBox="0 0 59.76 59.42"><defs><style>.cls-1{fill:#6cffc0;}.cls-2,.cls-4{fill:none;stroke-linecap:round;stroke-linejoin:round;stroke-width:3px;}.cls-2{stroke:#4b4668;}.cls-3{opacity:0.2;}.cls-4{stroke:#6cffc0;opacity:0.5;}</style></defs><title>Asset 4</title><g id="Layer_2" data-name="Layer 2"><g id="Layer_1-2" data-name="Layer 1"><path class="cls-1" d="M35.86 17.57l-5.13 5.13-1-5.27a5 5 0 0 0-5.83-4 5 5 0 0 0-4 5.83l2.24 12-6.8 6.8a5 5 0 0 0 0 7.07l12.74 12.74a5 5 0 0 0 7.07 0l20.51-20.5a14 14 0 0 0 0-19.8 14 14 0 0 0-19.8 0z" fill="#6cffc0"/><path class="cls-2" d="M30.2 16.15l-5.13 5.13-1-5.27a5 5 0 0 0-5.83-4 5 5 0 0 0-4 5.83l2.24 12-6.8 6.8a5 5 0 0 0 0 7.07l12.74 12.75a5 5 0 0 0 7.07 0L50 36a14 14 0 0 0 0-19.8 14 14 0 0 0-19.8-.05z" fill="none" stroke-linecap="round" stroke-linejoin="round" stroke-width="3px" stroke="#4b4668"/><path class="cls-2" fill="none" stroke-linecap="round" stroke-linejoin="round" stroke-width="3px" stroke="#4b4668" d="M26.67 49.39l11.31-11.32"/><path class="cls-2" fill="none" stroke-linecap="round" stroke-linejoin="round" stroke-width="3px" stroke="#4b4668" d="M23.13 43.02l11.31-11.31"/><path class="cls-2" fill="none" stroke-linecap="round" stroke-linejoin="round" stroke-width="3px" stroke="#4b4668" d="M37.27 28.88l.71-.71"/><path class="cls-2" fill="none" stroke-linecap="round" stroke-linejoin="round" stroke-width="3px" stroke="#4b4668" d="M23.84 32.42l-7.07 7.07"/><path class="cls-2" fill="none" stroke-linecap="round" stroke-linejoin="round" stroke-width="3px" stroke="#4b4668" d="M27.37 28.88"/><g class="cls-3" opacity="0.2"><path class="cls-2" fill="none" stroke-linecap="round" stroke-linejoin="round" stroke-width="3px" stroke="#4b4668" d="M55 45.92v5"/><path class="cls-2" fill="none" stroke-linecap="round" stroke-linejoin="round" stroke-width="3px" stroke="#4b4668" d="M57.5 48.42h-5"/></g><circle class="cls-4" cx="28.65" cy="4" r="2.5" fill="none" stroke-linecap="round" stroke-linejoin="round" stroke-width="3px" opacity="0.5" stroke="#6cffc0"/><g class="cls-3" opacity="0.2"><path class="cls-2" fill="none" stroke-linecap="round" stroke-linejoin="round" stroke-width="3px" stroke="#4b4668" d="M4 21.92v5"/><path class="cls-2" fill="none" stroke-linecap="round" stroke-linejoin="round" stroke-width="3px" stroke="#4b4668" d="M6.5 24.42h-5"/></g></g></g><metadata><rdf:RDF xmlns:rdf="http://www.w3.org/1999/02/22-rdf-syntax-ns#" xmlns:rdfs="http://www.w3.org/2000/01/rdf-schema#" xmlns:dc="http://purl.org/dc/elements/1.1/"><rdf:Description about="https://iconscout.com/legal#licenses" dc:title="asset" dc:description="asset" dc:publisher="Iconscout" dc:date="2017-09-26" dc:format="image/svg+xml" dc:language="en"><dc:creator><rdf:Bag><rdf:li>Arzu Sendag</rdf:li></rdf:Bag></dc:creator></rdf:Description></rdf:RDF></metadata></svg>