<svg width="55" height="59" viewBox="0 0 55 59" fill="none" xmlns="http://www.w3.org/2000/svg">
<path d="M53.0251 34.0786H38.805" stroke="#FFC599" stroke-width="3" stroke-linecap="round" stroke-linejoin="round"/>
<path d="M34.6226 34.0786H30.4402" stroke="#FFC599" stroke-width="3" stroke-linecap="round" stroke-linejoin="round"/>
<path d="M17.0566 36.588C19.3665 36.588 21.239 34.7155 21.239 32.4057C21.239 30.0958 19.3665 28.2233 17.0566 28.2233C14.7467 28.2233 12.8742 30.0958 12.8742 32.4057C12.8742 34.7155 14.7467 36.588 17.0566 36.588Z" fill="#FFC599"/>
<path d="M42.9874 19.022V8.14783H43.4057C44.1821 8.14783 44.9268 7.83938 45.4758 7.29033C46.0249 6.74129 46.3333 5.99662 46.3333 5.22015C46.3333 4.44369 46.0249 3.69902 45.4758 3.14998C44.9268 2.60093 44.1821 2.29248 43.4057 2.29248H21.6572C20.8808 2.29248 20.1361 2.60093 19.587 3.14998C19.038 3.69902 18.7296 4.44369 18.7296 5.22015C18.7296 5.99662 19.038 6.74129 19.587 7.29033C20.1361 7.83938 20.8808 8.14783 21.6572 8.14783H22.0755V19.022" fill="#FFC599"/>
<path d="M15.8019 19.4403H40.8962C44.224 19.4403 47.4154 20.7622 49.7684 23.1153C52.1215 25.4683 53.4434 28.6598 53.4434 31.9875V48.717C53.4434 49.8263 53.0028 50.8901 52.2184 51.6744C51.4341 52.4588 50.3703 52.8994 49.261 52.8994H7.43712C6.32788 52.8994 5.26407 52.4588 4.47972 51.6744C3.69537 50.8901 3.25473 49.8263 3.25473 48.717V31.9875C3.25473 28.6598 4.57666 25.4683 6.92971 23.1153C9.28276 20.7622 12.4742 19.4403 15.8019 19.4403V19.4403Z" stroke="#4B4668" stroke-width="3" stroke-linecap="round" stroke-linejoin="round"/>
<path d="M3.67294 44.1164H27.9308" stroke="#4B4668" stroke-width="3" stroke-linecap="round" stroke-linejoin="round"/>
<path d="M32.9497 44.1164H37.9685" stroke="#4B4668" stroke-width="3" stroke-linecap="round" stroke-linejoin="round"/>
<path d="M14.5472 38.261C16.857 38.261 18.7296 36.3885 18.7296 34.0786C18.7296 31.7688 16.857 29.8962 14.5472 29.8962C12.2373 29.8962 10.3648 31.7688 10.3648 34.0786C10.3648 36.3885 12.2373 38.261 14.5472 38.261Z" stroke="#4B4668" stroke-width="3" stroke-linecap="round" stroke-linejoin="round"/>
<path d="M11.6195 57.5V53.3176" stroke="#4B4668" stroke-width="3" stroke-linecap="round" stroke-linejoin="round"/>
<path d="M45.0786 57.5V53.3176" stroke="#4B4668" stroke-width="3" stroke-linecap="round" stroke-linejoin="round"/>
<path d="M38.805 19.022V8.14783H39.2233C39.9997 8.14783 40.7444 7.83938 41.2935 7.29033C41.8425 6.74129 42.151 5.99662 42.151 5.22015C42.151 4.44369 41.8425 3.69902 41.2935 3.14998C40.7444 2.60093 39.9997 2.29248 39.2233 2.29248H17.4749C16.6984 2.29248 15.9537 2.60093 15.4047 3.14998C14.8556 3.69902 14.5472 4.44369 14.5472 5.22015C14.5472 5.99662 14.8556 6.74129 15.4047 7.29033C15.9537 7.83938 16.6984 8.14783 17.4749 8.14783H17.8931V19.022" stroke="#4B4668" stroke-width="3" stroke-linecap="round" stroke-linejoin="round"/>
<path d="M25.0031 9.40256C25.6961 9.40256 26.2578 8.84081 26.2578 8.14784C26.2578 7.45488 25.6961 6.89313 25.0031 6.89313C24.3102 6.89313 23.7484 7.45488 23.7484 8.14784C23.7484 8.84081 24.3102 9.40256 25.0031 9.40256Z" fill="#4B4668"/>
<path d="M31.695 9.40256C32.3879 9.40256 32.9497 8.84081 32.9497 8.14784C32.9497 7.45488 32.3879 6.89313 31.695 6.89313C31.002 6.89313 30.4402 7.45488 30.4402 8.14784C30.4402 8.84081 31.002 9.40256 31.695 9.40256Z" fill="#4B4668"/>
<path d="M21.6572 16.0944C22.3502 16.0944 22.912 15.5326 22.912 14.8397C22.912 14.1467 22.3502 13.585 21.6572 13.585C20.9643 13.585 20.4025 14.1467 20.4025 14.8397C20.4025 15.5326 20.9643 16.0944 21.6572 16.0944Z" fill="#4B4668"/>
<path d="M28.349 16.0944C29.042 16.0944 29.6038 15.5326 29.6038 14.8397C29.6038 14.1467 29.042 13.585 28.349 13.585C27.6561 13.585 27.0943 14.1467 27.0943 14.8397C27.0943 15.5326 27.6561 16.0944 28.349 16.0944Z" fill="#4B4668"/>
<path d="M35.0409 16.0944C35.7338 16.0944 36.2956 15.5326 36.2956 14.8397C36.2956 14.1467 35.7338 13.585 35.0409 13.585C34.3479 13.585 33.7862 14.1467 33.7862 14.8397C33.7862 15.5326 34.3479 16.0944 35.0409 16.0944Z" fill="#4B4668"/>
<g opacity="0.1">
<path d="M8.69184 21.933C7.03439 22.9371 5.66347 24.3512 4.71117 26.039C3.75887 27.7267 3.25728 29.6313 3.25473 31.5692V49.9717C3.25473 50.7482 3.56318 51.4929 4.11223 52.0419C4.66127 52.591 5.40594 52.8994 6.1824 52.8994H50.5157C51.2922 52.8994 52.0369 52.591 52.5859 52.0419C53.135 51.4929 53.4434 50.7482 53.4434 49.9717V48.717H18.7296C16.0674 48.717 13.5143 47.6595 11.6318 45.777C9.74938 43.8946 8.69184 41.3414 8.69184 38.6793V21.933Z" fill="#4B4668"/>
</g>
<g opacity="0.2">
<path d="M4.09119 12.5561V16.7385" stroke="#4B4668" stroke-width="3" stroke-linecap="round" stroke-linejoin="round"/>
<path d="M6.18239 14.6473H2" stroke="#4B4668" stroke-width="3" stroke-linecap="round" stroke-linejoin="round"/>
</g>
</svg>
