<?xml version="1.0" encoding="UTF-8"?><svg xmlns="http://www.w3.org/2000/svg" viewBox="0 0 75.15 82.5"><defs><style>.cls-1,.cls-3,.cls-6{fill:none;stroke-linecap:round;stroke-linejoin:round;stroke-width:3px;}.cls-1,.cls-6{stroke:#ffc599;}.cls-2{fill:#ffc599;}.cls-3{stroke:#4b4668;}.cls-4{fill:#4b4668;}.cls-5{opacity:0.1;}.cls-6{opacity:0.5;}.cls-7{opacity:0.2;}</style></defs><title>Asset 1</title><g id="Layer_2" data-name="Layer 2"><g id="Layer_1-2" data-name="Layer 1"><path class="cls-1" fill="none" stroke-linecap="round" stroke-linejoin="round" stroke-width="3px" stroke="#ffc599" d="M62.5 53h-17"/><path class="cls-1" fill="none" stroke-linecap="round" stroke-linejoin="round" stroke-width="3px" stroke="#ffc599" d="M40.5 53h-5"/><circle class="cls-2" cx="19.5" cy="51" r="5" fill="#ffc599"/><path class="cls-2" d="M50.5 35V22h.5a3.5 3.5 0 0 0 3.5-3.5A3.5 3.5 0 0 0 51 15H25a3.5 3.5 0 0 0-3.5 3.5A3.5 3.5 0 0 0 25 22h.5v13" fill="#ffc599"/><path class="cls-3" d="M18 35.5h30a15 15 0 0 1 15 15v20a5 5 0 0 1-5 5H8a5 5 0 0 1-5-5v-20a15 15 0 0 1 15-15z" fill="none" stroke-linecap="round" stroke-linejoin="round" stroke-width="3px" stroke="#4b4668"/><path class="cls-3" fill="none" stroke-linecap="round" stroke-linejoin="round" stroke-width="3px" stroke="#4b4668" d="M3.5 65h29"/><path class="cls-3" fill="none" stroke-linecap="round" stroke-linejoin="round" stroke-width="3px" stroke="#4b4668" d="M38.5 65h6"/><path class="cls-3" fill="none" stroke-linecap="round" stroke-linejoin="round" stroke-width="3px" stroke="#4b4668" d="M51.5 65"/><circle class="cls-3" cx="16.5" cy="53" r="5" fill="none" stroke-linecap="round" stroke-linejoin="round" stroke-width="3px" stroke="#4b4668"/><path class="cls-3" fill="none" stroke-linecap="round" stroke-linejoin="round" stroke-width="3px" stroke="#4b4668" d="M13 81v-5"/><path class="cls-3" fill="none" stroke-linecap="round" stroke-linejoin="round" stroke-width="3px" stroke="#4b4668" d="M53 81v-5"/><path class="cls-3" d="M45.5 35V22h.5a3.5 3.5 0 0 0 3.5-3.5A3.5 3.5 0 0 0 46 15H20a3.5 3.5 0 0 0-3.5 3.5A3.5 3.5 0 0 0 20 22h.5v13" fill="none" stroke-linecap="round" stroke-linejoin="round" stroke-width="3px" stroke="#4b4668"/><circle class="cls-4" cx="29" cy="22" r="1.5" fill="#4b4668"/><circle class="cls-4" cx="37" cy="22" r="1.5" fill="#4b4668"/><circle class="cls-4" cx="25" cy="30" r="1.5" fill="#4b4668"/><circle class="cls-4" cx="33" cy="30" r="1.5" fill="#4b4668"/><circle class="cls-4" cx="41" cy="30" r="1.5" fill="#4b4668"/><g class="cls-5" opacity="0.1"><path class="cls-4" d="M9.5 38.48A13.49 13.49 0 0 0 3 50v22a3.5 3.5 0 0 0 3.5 3.5h53A3.5 3.5 0 0 0 63 72v-1.5H21.5a12 12 0 0 1-12-12z" fill="#4b4668"/></g><circle class="cls-6" cx="71.15" cy="54" r="2.5" fill="none" stroke-linecap="round" stroke-linejoin="round" stroke-width="3px" stroke="#ffc599" opacity="0.5"/><g class="cls-7" opacity="0.2"><path class="cls-3" fill="none" stroke-linecap="round" stroke-linejoin="round" stroke-width="3px" stroke="#4b4668" d="M4 27.27v5"/><path class="cls-3" fill="none" stroke-linecap="round" stroke-linejoin="round" stroke-width="3px" stroke="#4b4668" d="M6.5 29.77h-5"/></g><circle class="cls-6" cx="27.15" cy="4" r="2.5" fill="none" stroke-linecap="round" stroke-linejoin="round" stroke-width="3px" stroke="#ffc599" opacity="0.5"/></g></g><metadata><rdf:RDF xmlns:rdf="http://www.w3.org/1999/02/22-rdf-syntax-ns#" xmlns:rdfs="http://www.w3.org/2000/01/rdf-schema#" xmlns:dc="http://purl.org/dc/elements/1.1/"><rdf:Description about="https://iconscout.com/legal#licenses" dc:title="asset" dc:description="asset" dc:publisher="Iconscout" dc:date="2017-09-26" dc:format="image/svg+xml" dc:language="en"><dc:creator><rdf:Bag><rdf:li>Arzu Sendag</rdf:li></rdf:Bag></dc:creator></rdf:Description></rdf:RDF></metadata></svg>