<svg width="168" height="48" viewBox="0 0 168 48" fill="none" xmlns="http://www.w3.org/2000/svg">
<path d="M43.648 35.288C42.88 35.288 42.3253 35.1707 41.984 34.936C41.6427 34.68 41.4293 34.36 41.344 33.976C41.28 33.5707 41.248 33.1547 41.248 32.728V15.384C41.248 14.9573 41.28 14.5627 41.344 14.2C41.4293 13.816 41.6427 13.5067 41.984 13.272C42.3253 13.016 42.8907 12.888 43.68 12.888H51.648C52.9067 12.888 54.0267 13.1867 55.008 13.784C55.9893 14.3813 56.768 15.1813 57.344 16.184C57.92 17.1867 58.1973 18.2747 58.176 19.448C58.1973 19.9173 58.1547 20.376 58.048 20.824C57.9413 21.272 57.7813 21.7093 57.568 22.136C57.376 22.5413 57.1307 22.9147 56.832 23.256C57.28 23.6827 57.6533 24.1733 57.952 24.728C58.2507 25.2613 58.4747 25.8267 58.624 26.424C58.7947 27.0213 58.88 27.6293 58.88 28.248C58.8587 29.2293 58.6667 30.1573 58.304 31.032C57.9627 31.8853 57.472 32.632 56.832 33.272C56.192 33.8907 55.456 34.3813 54.624 34.744C53.792 35.1067 52.9067 35.288 51.968 35.288H43.648ZM46.112 30.456H51.648C52.0107 30.456 52.3733 30.392 52.736 30.264C53.12 30.1147 53.4293 29.8587 53.664 29.496C53.92 29.112 54.048 28.5787 54.048 27.896C54.048 27.448 53.9947 27.0747 53.888 26.776C53.7813 26.4773 53.632 26.2533 53.44 26.104C53.248 25.9333 53.0347 25.816 52.8 25.752C52.5653 25.688 52.32 25.6453 52.064 25.624C51.808 25.6027 51.5627 25.592 51.328 25.592H50.4C49.6747 25.592 49.1627 25.4427 48.864 25.144C48.5653 24.824 48.416 24.28 48.416 23.512C48.416 22.7653 48.576 22.2427 48.896 21.944C49.2373 21.6453 49.7707 21.496 50.496 21.496H51.424C51.6373 21.496 51.8613 21.4853 52.096 21.464C52.3307 21.4427 52.5333 21.3787 52.704 21.272C52.896 21.1653 53.0453 20.9947 53.152 20.76C53.28 20.504 53.344 20.1627 53.344 19.736C53.344 19.0107 53.1627 18.4987 52.8 18.2C52.4373 17.88 51.7973 17.72 50.88 17.72H46.112V30.456ZM66.6755 35.32C66.0995 35.32 65.6515 35.2133 65.3315 35C65.0328 34.7867 64.8088 34.5307 64.6595 34.232C64.5315 33.9333 64.4248 33.6773 64.3395 33.464L59.8275 22.296C59.6782 21.784 59.6035 21.3573 59.6035 21.016C59.6248 20.6533 59.7528 20.3547 59.9875 20.12C60.2435 19.864 60.6382 19.64 61.1715 19.448C61.9822 19.1067 62.6435 19.0107 63.1555 19.16C63.6675 19.3093 64.0515 19.7467 64.3075 20.472L66.6755 26.904L68.7875 20.984C68.8728 20.7707 68.9902 20.536 69.1395 20.28C69.2888 20.0027 69.5128 19.7573 69.8115 19.544C70.1315 19.3307 70.5582 19.224 71.0915 19.224C71.6675 19.224 72.1155 19.3307 72.4355 19.544C72.7555 19.7573 72.9902 20.0027 73.1395 20.28C73.3102 20.5573 73.4275 20.792 73.4915 20.984L75.6035 26.904L77.8435 20.856C78.1422 20.0667 78.5368 19.5333 79.0275 19.256C79.5182 18.9787 80.1688 19.0107 80.9795 19.352C81.7262 19.672 82.2382 20.0667 82.5155 20.536C82.7928 21.0053 82.7608 21.6027 82.4195 22.328L77.9075 33.464C77.8222 33.6987 77.7048 33.9653 77.5555 34.264C77.4062 34.5627 77.1822 34.808 76.8835 35C76.5848 35.2133 76.1688 35.32 75.6355 35.32C75.0808 35.32 74.6542 35.224 74.3555 35.032C74.0568 34.8613 73.8222 34.6267 73.6515 34.328C73.5022 34.0293 73.3742 33.7307 73.2675 33.432L71.1235 27.544L69.0115 33.432C68.8622 33.816 68.7235 34.1573 68.5955 34.456C68.4675 34.7333 68.2542 34.9467 67.9555 35.096C67.6782 35.2453 67.2515 35.32 66.6755 35.32ZM96.6493 35.256C95.8599 35.256 95.2733 35.1173 94.8893 34.84C94.5266 34.5627 94.3453 34.2213 94.3453 33.816L94.6653 33.272C94.5373 33.4853 94.2919 33.752 93.9293 34.072C93.5666 34.3707 93.0973 34.648 92.5213 34.904C91.9453 35.1387 91.2306 35.256 90.3773 35.256C89.3959 35.256 88.4573 35.0427 87.5613 34.616C86.6866 34.1893 85.9079 33.6027 85.2253 32.856C84.5426 32.088 83.9986 31.224 83.5933 30.264C83.2093 29.304 83.0173 28.2907 83.0173 27.224C83.0173 26.1787 83.2093 25.1867 83.5933 24.248C83.9986 23.288 84.5426 22.4453 85.2253 21.72C85.9293 20.9733 86.7186 20.3867 87.5933 19.96C88.4679 19.5333 89.3959 19.32 90.3773 19.32C91.1666 19.32 91.8386 19.4373 92.3933 19.672C92.9479 19.8853 93.4066 20.1413 93.7693 20.44C94.1533 20.7387 94.4413 21.0267 94.6333 21.304L94.3773 20.856C94.3559 20.344 94.5266 19.96 94.8893 19.704C95.2733 19.4267 95.8706 19.288 96.6813 19.288C97.4493 19.288 97.9933 19.4053 98.3133 19.64C98.6546 19.8747 98.8573 20.184 98.9213 20.568C99.0066 20.952 99.0493 21.3573 99.0493 21.784V32.824C99.0493 33.2293 99.0066 33.624 98.9213 34.008C98.8573 34.392 98.6546 34.7013 98.3133 34.936C97.9933 35.1493 97.4386 35.256 96.6493 35.256ZM91.0813 30.488C91.6359 30.488 92.1373 30.3493 92.5853 30.072C93.0546 29.7733 93.4173 29.3787 93.6733 28.888C93.9506 28.3973 94.0893 27.8533 94.0893 27.256C94.0893 26.6373 93.9506 26.0933 93.6733 25.624C93.3959 25.1333 93.0226 24.7493 92.5533 24.472C92.0839 24.1733 91.5719 24.024 91.0173 24.024C90.3986 24.024 89.8439 24.1733 89.3533 24.472C88.8839 24.7707 88.4999 25.1653 88.2013 25.656C87.9239 26.1467 87.7853 26.7013 87.7853 27.32C87.7853 27.896 87.9239 28.4293 88.2013 28.92C88.4999 29.3893 88.8946 29.7733 89.3853 30.072C89.8973 30.3493 90.4626 30.488 91.0813 30.488Z" fill="#E3AA18"/>
<path d="M104.025 35.288C103.235 35.288 102.67 35.1813 102.329 34.968C102.009 34.7333 101.806 34.424 101.721 34.04C101.657 33.656 101.625 33.2613 101.625 32.856V21.688C101.625 21.2613 101.667 20.8667 101.753 20.504C101.838 20.1413 102.041 19.8533 102.361 19.64C102.702 19.4053 103.267 19.288 104.057 19.288C104.803 19.288 105.337 19.3947 105.657 19.608C105.998 19.8 106.211 20.0347 106.297 20.312C106.382 20.568 106.425 20.792 106.425 20.984L106.041 21.176C106.083 21.0907 106.19 20.9413 106.361 20.728C106.553 20.4933 106.809 20.2587 107.129 20.024C107.449 19.768 107.833 19.5547 108.281 19.384C108.75 19.2133 109.283 19.128 109.881 19.128C110.115 19.128 110.371 19.1493 110.649 19.192C110.947 19.2133 111.246 19.2773 111.545 19.384C111.865 19.4693 112.153 19.5973 112.409 19.768C112.665 19.9173 112.867 20.1093 113.017 20.344C113.187 20.5787 113.273 20.8667 113.273 21.208C113.273 22.0827 113.07 22.8293 112.665 23.448C112.259 24.0453 111.747 24.344 111.129 24.344C110.766 24.344 110.51 24.312 110.361 24.248C110.211 24.184 110.083 24.12 109.977 24.056C109.891 23.992 109.785 23.9387 109.657 23.896C109.529 23.832 109.294 23.8 108.953 23.8C108.633 23.8 108.323 23.8427 108.025 23.928C107.747 24.0133 107.481 24.152 107.225 24.344C106.99 24.5147 106.798 24.7387 106.649 25.016C106.521 25.272 106.457 25.56 106.457 25.88V32.92C106.457 33.3253 106.414 33.72 106.329 34.104C106.265 34.4667 106.062 34.7547 105.721 34.968C105.379 35.1813 104.814 35.288 104.025 35.288ZM127.087 35.256C126.297 35.256 125.711 35.1173 125.327 34.84C124.964 34.5627 124.783 34.2213 124.783 33.816L125.103 33.272C124.975 33.4853 124.729 33.752 124.367 34.072C124.004 34.3707 123.535 34.648 122.959 34.904C122.383 35.1387 121.668 35.256 120.815 35.256C119.833 35.256 118.895 35.0427 117.999 34.616C117.124 34.1893 116.345 33.6027 115.663 32.856C114.98 32.088 114.436 31.224 114.031 30.264C113.647 29.304 113.455 28.2907 113.455 27.224C113.455 26.1787 113.647 25.1867 114.031 24.248C114.436 23.288 114.98 22.4453 115.663 21.72C116.367 20.9733 117.156 20.3867 118.031 19.96C118.905 19.5333 119.833 19.32 120.815 19.32C121.604 19.32 122.276 19.4373 122.831 19.672C123.385 19.8853 123.844 20.1413 124.207 20.44C124.591 20.7387 124.879 21.0267 125.071 21.304L124.815 20.856C124.793 20.344 124.964 19.96 125.327 19.704C125.711 19.4267 126.308 19.288 127.119 19.288C127.887 19.288 128.431 19.4053 128.751 19.64C129.092 19.8747 129.295 20.184 129.359 20.568C129.444 20.952 129.487 21.3573 129.487 21.784V32.824C129.487 33.2293 129.444 33.624 129.359 34.008C129.295 34.392 129.092 34.7013 128.751 34.936C128.431 35.1493 127.876 35.256 127.087 35.256ZM121.519 30.488C122.073 30.488 122.575 30.3493 123.023 30.072C123.492 29.7733 123.855 29.3787 124.111 28.888C124.388 28.3973 124.527 27.8533 124.527 27.256C124.527 26.6373 124.388 26.0933 124.111 25.624C123.833 25.1333 123.46 24.7493 122.991 24.472C122.521 24.1733 122.009 24.024 121.455 24.024C120.836 24.024 120.281 24.1733 119.791 24.472C119.321 24.7707 118.937 25.1653 118.639 25.656C118.361 26.1467 118.223 26.7013 118.223 27.32C118.223 27.896 118.361 28.4293 118.639 28.92C118.937 29.3893 119.332 29.7733 119.823 30.072C120.335 30.3493 120.9 30.488 121.519 30.488ZM137.822 35.544C137.246 35.544 136.617 35.48 135.934 35.352C135.273 35.224 134.622 35.0427 133.982 34.808C133.342 34.552 132.809 34.264 132.382 33.944C131.955 33.6027 131.71 33.2187 131.646 32.792C131.603 32.5787 131.603 32.3547 131.646 32.12C131.71 31.864 131.817 31.608 131.966 31.352C132.115 31.0747 132.297 30.7867 132.51 30.488C132.681 30.2533 132.873 30.104 133.086 30.04C133.299 29.976 133.545 29.9867 133.822 30.072C134.163 30.136 134.505 30.2533 134.846 30.424C135.209 30.5733 135.561 30.744 135.902 30.936C136.265 31.1067 136.638 31.2667 137.022 31.416C137.406 31.544 137.801 31.608 138.206 31.608C138.803 31.608 139.262 31.5227 139.582 31.352C139.923 31.16 140.094 30.904 140.094 30.584C140.094 30.3493 140.019 30.1573 139.87 30.008C139.742 29.8587 139.55 29.7307 139.294 29.624C139.059 29.496 138.782 29.3893 138.462 29.304C138.142 29.2187 137.79 29.1333 137.406 29.048C137.043 28.9413 136.67 28.8347 136.286 28.728C135.753 28.5787 135.241 28.3867 134.75 28.152C134.259 27.9173 133.811 27.6187 133.406 27.256C133.001 26.872 132.681 26.4133 132.446 25.88C132.211 25.3253 132.094 24.6533 132.094 23.864C132.094 22.8187 132.339 21.944 132.83 21.24C133.321 20.536 134.035 20.0027 134.974 19.64C135.913 19.256 137.054 19.064 138.398 19.064C138.782 19.064 139.166 19.0853 139.55 19.128C139.934 19.1707 140.307 19.2453 140.67 19.352C141.054 19.4587 141.427 19.5867 141.79 19.736C142.153 19.8853 142.515 20.0667 142.878 20.28C143.518 20.5787 143.849 20.984 143.87 21.496C143.891 22.008 143.71 22.5307 143.326 23.064C143.091 23.4267 142.846 23.6933 142.59 23.864C142.334 24.0133 142.067 24.056 141.79 23.992C141.449 23.9067 141.075 23.768 140.67 23.576C140.286 23.384 139.87 23.2027 139.422 23.032C138.995 22.8613 138.569 22.776 138.142 22.776C137.779 22.776 137.47 22.8293 137.214 22.936C136.958 23.0213 136.766 23.1493 136.638 23.32C136.51 23.4693 136.446 23.6507 136.446 23.864C136.446 24.1413 136.521 24.3653 136.67 24.536C136.841 24.6853 137.065 24.8133 137.342 24.92C137.619 25.0267 137.939 25.1227 138.302 25.208C138.665 25.2933 139.059 25.3787 139.486 25.464C140.062 25.5707 140.649 25.72 141.246 25.912C141.865 26.0827 142.419 26.3387 142.91 26.68C143.422 27.0213 143.827 27.48 144.126 28.056C144.446 28.632 144.606 29.3893 144.606 30.328C144.606 32.0133 144.019 33.304 142.846 34.2C141.673 35.096 139.998 35.544 137.822 35.544ZM159.774 35.256C158.985 35.256 158.398 35.1173 158.014 34.84C157.652 34.5627 157.47 34.2213 157.47 33.816L157.79 33.272C157.662 33.4853 157.417 33.752 157.054 34.072C156.692 34.3707 156.222 34.648 155.646 34.904C155.07 35.1387 154.356 35.256 153.502 35.256C152.521 35.256 151.582 35.0427 150.686 34.616C149.812 34.1893 149.033 33.6027 148.35 32.856C147.668 32.088 147.124 31.224 146.718 30.264C146.334 29.304 146.142 28.2907 146.142 27.224C146.142 26.1787 146.334 25.1867 146.718 24.248C147.124 23.288 147.668 22.4453 148.35 21.72C149.054 20.9733 149.844 20.3867 150.718 19.96C151.593 19.5333 152.521 19.32 153.502 19.32C154.292 19.32 154.964 19.4373 155.518 19.672C156.073 19.8853 156.532 20.1413 156.894 20.44C157.278 20.7387 157.566 21.0267 157.758 21.304L157.502 20.856C157.481 20.344 157.652 19.96 158.014 19.704C158.398 19.4267 158.996 19.288 159.806 19.288C160.574 19.288 161.118 19.4053 161.438 19.64C161.78 19.8747 161.982 20.184 162.046 20.568C162.132 20.952 162.174 21.3573 162.174 21.784V32.824C162.174 33.2293 162.132 33.624 162.046 34.008C161.982 34.392 161.78 34.7013 161.438 34.936C161.118 35.1493 160.564 35.256 159.774 35.256ZM154.206 30.488C154.761 30.488 155.262 30.3493 155.71 30.072C156.18 29.7733 156.542 29.3787 156.798 28.888C157.076 28.3973 157.214 27.8533 157.214 27.256C157.214 26.6373 157.076 26.0933 156.798 25.624C156.521 25.1333 156.148 24.7493 155.678 24.472C155.209 24.1733 154.697 24.024 154.142 24.024C153.524 24.024 152.969 24.1733 152.478 24.472C152.009 24.7707 151.625 25.1653 151.326 25.656C151.049 26.1467 150.91 26.7013 150.91 27.32C150.91 27.896 151.049 28.4293 151.326 28.92C151.625 29.3893 152.02 29.7733 152.51 30.072C153.022 30.3493 153.588 30.488 154.206 30.488Z" fill="#F2CB67"/>
<ellipse cx="19.9222" cy="25.6057" rx="12.9005" ry="17.5" transform="rotate(-150 19.9222 25.6057)" fill="url(#paint0_linear_104_6)"/>
<ellipse cx="16.9778" cy="19.7176" rx="9.56951" ry="17.5" transform="rotate(-160 16.9778 19.7176)" fill="url(#paint1_linear_104_6)"/>
<defs>
<linearGradient id="paint0_linear_104_6" x1="19.9222" y1="8.10572" x2="19.9222" y2="43.1057" gradientUnits="userSpaceOnUse">
<stop stop-color="#F2CB67"/>
<stop offset="1" stop-color="#E3AA18"/>
</linearGradient>
<linearGradient id="paint1_linear_104_6" x1="16.9778" y1="2.21759" x2="16.9778" y2="37.2176" gradientUnits="userSpaceOnUse">
<stop stop-color="#F2CB67"/>
<stop offset="1" stop-color="#E3AA18"/>
</linearGradient>
</defs>
</svg>
