<svg width="32" height="32" viewBox="0 0 32 32" fill="none" xmlns="http://www.w3.org/2000/svg">
<path d="M29 5V31L26.01 29.1L23 31L20 29L17 31L14 29L11 31V5C11 3.93913 10.5786 2.92172 9.82843 2.17157C9.07828 1.42143 8.06087 1 7 1H25C26.0609 1 27.0783 1.42143 27.8284 2.17157C28.5786 2.92172 29 3.93913 29 5Z" fill="#EBEAF2"/>
<path d="M29 22V31L26.01 29.1L23 31L20 29L17 31L14 29L11 31V5C11 3.93913 10.5786 2.92172 9.82843 2.17157C9.07828 1.42143 8.06087 1 7 1H16V12C16 14.6522 17.0536 17.1957 18.9289 19.0711C20.8043 20.9464 23.3478 22 26 22H29Z" fill="#D8D0EF"/>
<path d="M11 5V15L7 12L3 15V5C3 3.93913 3.42143 2.92172 4.17157 2.17157C4.92172 1.42143 5.93913 1 7 1C8.06087 1 9.07828 1.42143 9.82843 2.17157C10.5786 2.92172 11 3.93913 11 5Z" fill="#EBEAF2"/>
<path d="M28 8.81396C28 8.26168 27.5523 7.81396 27 7.81396C26.4477 7.81396 26 8.26168 26 8.81396V11.996C26 12.5482 26.4477 12.996 27 12.996C27.5523 12.996 28 12.5482 28 11.996V8.81396Z" fill="white"/>
<path d="M27 6.99695C27.5523 6.99695 28 6.54923 28 5.99695C28 5.44466 27.5523 4.99695 27 4.99695C26.4477 4.99695 26 5.44466 26 5.99695C26 6.54923 26.4477 6.99695 27 6.99695Z" fill="white"/>
<path d="M2.553 15.894C2.71904 15.9771 2.90493 16.0123 3.08985 15.9957C3.27477 15.9791 3.45141 15.9113 3.6 15.8L7 13.25L10 15.5V31C10.0041 31.1792 10.0557 31.354 10.1495 31.5067C10.2433 31.6594 10.376 31.7844 10.534 31.869C10.6929 31.9516 10.8704 31.9916 11.0494 31.9851C11.2283 31.9786 11.4025 31.9259 11.555 31.832L14 30.2L16.445 31.831C16.6093 31.9406 16.8025 31.9991 17 31.9991C17.1975 31.9991 17.3907 31.9406 17.555 31.831L20 30.2L22.445 31.831C22.6058 31.9382 22.7943 31.9964 22.9876 31.9988C23.1808 32.0011 23.3706 31.9473 23.534 31.844L26 30.283L28.46 31.844C28.6019 31.931 28.7631 31.9818 28.9293 31.9919C29.0954 32.002 29.2616 31.9712 29.413 31.902C29.5846 31.8205 29.7302 31.6931 29.8338 31.5339C29.9374 31.3747 29.9949 31.1899 30 31V5C29.9984 3.67441 29.4711 2.40356 28.5338 1.46622C27.5964 0.528882 26.3256 0.00158786 25 0L7 0C5.67441 0.00158786 4.40356 0.528882 3.46622 1.46622C2.52888 2.40356 2.00159 3.67441 2 5V15C2.0001 15.1857 2.05188 15.3676 2.14955 15.5255C2.24722 15.6834 2.38692 15.811 2.553 15.894ZM28 5V29.181L26.541 28.256C26.381 28.1547 26.1954 28.1009 26.006 28.1009C25.8166 28.1009 25.631 28.1547 25.471 28.256L23.015 29.808L20.555 28.169C20.3907 28.0594 20.1975 28.0009 20 28.0009C19.8025 28.0009 19.6093 28.0594 19.445 28.169L17 29.8L14.555 28.17C14.3907 28.0604 14.1975 28.0019 14 28.0019C13.8025 28.0019 13.6093 28.0604 13.445 28.17L12 29.131V5C11.9963 3.91453 11.6358 2.86039 10.974 2H25C25.7956 2 26.5587 2.31607 27.1213 2.87868C27.6839 3.44129 28 4.20435 28 5ZM4 5C4 4.20435 4.31607 3.44129 4.87868 2.87868C5.44129 2.31607 6.20435 2 7 2C7.79565 2 8.55871 2.31607 9.12132 2.87868C9.68393 3.44129 10 4.20435 10 5V13L7.6 11.2C7.42511 11.0745 7.21527 11.007 7 11.007C6.78473 11.007 6.57489 11.0745 6.4 11.2L4 13V5Z" fill="black"/>
<path d="M15 20H25C25.2652 20 25.5196 19.8946 25.7071 19.7071C25.8946 19.5196 26 19.2652 26 19C26 18.7348 25.8946 18.4804 25.7071 18.2929C25.5196 18.1054 25.2652 18 25 18H15C14.7348 18 14.4804 18.1054 14.2929 18.2929C14.1054 18.4804 14 18.7348 14 19C14 19.2652 14.1054 19.5196 14.2929 19.7071C14.4804 19.8946 14.7348 20 15 20ZM15 25H20C20.2652 25 20.5196 24.8946 20.7071 24.7071C20.8946 24.5196 21 24.2652 21 24C21 23.7348 20.8946 23.4804 20.7071 23.2929C20.5196 23.1054 20.2652 23 20 23H15C14.7348 23 14.4804 23.1054 14.2929 23.2929C14.1054 23.4804 14 23.7348 14 24C14 24.2652 14.1054 24.5196 14.2929 24.7071C14.4804 24.8946 14.7348 25 15 25ZM19 12C18.7348 12 18.4804 12.1054 18.2929 12.2929C18.1054 12.4804 18 12.7348 18 13C18 13.2652 18.1054 13.5196 18.2929 13.7071C18.4804 13.8946 18.7348 14 19 14C19 14.2652 19.1054 14.5196 19.2929 14.7071C19.4804 14.8946 19.7348 15 20 15C20.2652 15 20.5196 14.8946 20.7071 14.7071C20.8946 14.5196 21 14.2652 21 14V13.722C21.303 13.5479 21.555 13.2971 21.7305 12.9948C21.906 12.6926 21.9989 12.3495 22 12V11C22 10.4696 21.7893 9.96086 21.4142 9.58579C21.0391 9.21071 20.5304 9 20 9V8H21C21.2652 8 21.5196 7.89464 21.7071 7.70711C21.8946 7.51957 22 7.26522 22 7C22 6.73478 21.8946 6.48043 21.7071 6.29289C21.5196 6.10536 21.2652 6 21 6C21 5.73478 20.8946 5.48043 20.7071 5.29289C20.5196 5.10536 20.2652 5 20 5C19.7348 5 19.4804 5.10536 19.2929 5.29289C19.1054 5.48043 19 5.73478 19 6V6.278C18.697 6.45214 18.445 6.70291 18.2695 7.00516C18.094 7.3074 18.0011 7.65049 18 8V9C18 9.53043 18.2107 10.0391 18.5858 10.4142C18.9609 10.7893 19.4696 11 20 11V12H19Z" fill="black"/>
</svg>
