<svg width="36" height="36" viewBox="0 0 36 36" fill="none" xmlns="http://www.w3.org/2000/svg">
<g clip-path="url(#clip0_22_1146)">
<path d="M34.7962 8.47129L33.1425 14.3325L32.94 15.0525C32.686 15.9323 32.1739 16.7156 31.4699 17.3013C30.766 17.8869 29.9025 18.2479 28.9912 18.3375L13.0612 20.0588C12.668 20.0963 12.2862 20.2122 11.9384 20.3996C11.5906 20.5871 11.2839 20.8422 11.0362 21.15L8.58374 5.62504H32.5575C32.9083 5.61841 33.2559 5.69319 33.5729 5.84349C33.89 5.9938 34.1679 6.21555 34.3848 6.49134C34.6017 6.76713 34.7518 7.08944 34.8231 7.43297C34.8945 7.77651 34.8853 8.13191 34.7962 8.47129Z" fill="#BDEFFC"/>
<path d="M33.1425 14.3325L32.94 15.0525C32.686 15.9323 32.1739 16.7156 31.4699 17.3012C30.766 17.8868 29.9025 18.2478 28.9912 18.3375L13.0612 20.0588C12.668 20.0963 12.2862 20.2122 11.9384 20.3996C11.5906 20.587 11.2839 20.8422 11.0362 21.15L8.58374 5.625H16.47V7.5825C16.47 9.37271 17.1811 11.0896 18.447 12.3555C19.7129 13.6213 21.4298 14.3325 23.22 14.3325H33.1425Z" fill="#9DDCED"/>
<path d="M14.625 34.875C15.8676 34.875 16.875 33.8676 16.875 32.625C16.875 31.3824 15.8676 30.375 14.625 30.375C13.3824 30.375 12.375 31.3824 12.375 32.625C12.375 33.8676 13.3824 34.875 14.625 34.875Z" fill="#C3BEC6"/>
<path d="M29.25 34.875C30.4926 34.875 31.5 33.8676 31.5 32.625C31.5 31.3824 30.4926 30.375 29.25 30.375C28.0074 30.375 27 31.3824 27 32.625C27 33.8676 28.0074 34.875 29.25 34.875Z" fill="#C3BEC6"/>
<path d="M1.125 2.25002H5.95237C6.22037 2.24996 6.47959 2.34557 6.68336 2.51964C6.88713 2.69371 7.02207 2.93481 7.06387 3.19952L9.855 20.8879C9.74438 21.0677 9.64772 21.2558 9.56588 21.4504C9.3171 22.0549 9.22133 22.7114 9.28707 23.3618C9.35282 24.0121 9.57803 24.6362 9.94275 25.1786C10.3242 25.7427 10.8388 26.204 11.441 26.5217C12.0432 26.8394 12.7145 27.0037 13.3954 27H32.625C32.9234 27 33.2095 26.8815 33.4205 26.6705C33.6315 26.4595 33.75 26.1734 33.75 25.875C33.75 25.5767 33.6315 25.2905 33.4205 25.0795C33.2095 24.8685 32.9234 24.75 32.625 24.75H13.3954C13.0991 24.756 12.8059 24.6896 12.5411 24.5567C12.2763 24.4237 12.0479 24.2282 11.8757 23.9871C11.7035 23.7459 11.5926 23.4665 11.5528 23.1728C11.513 22.8792 11.5454 22.5803 11.6471 22.302C11.7783 21.9935 11.9903 21.7262 12.2608 21.5282C12.5313 21.3302 12.8502 21.2088 13.1839 21.177L29.1082 19.4625C30.2455 19.3515 31.3231 18.9007 32.2005 18.1687C33.078 17.4367 33.7147 16.4575 34.0279 15.3585L35.8751 8.77502C36.016 8.28054 36.0397 7.76001 35.9442 7.25479C35.8487 6.74957 35.6367 6.27358 35.325 5.86465C35.0022 5.43703 34.5837 5.09089 34.1032 4.85394C33.6226 4.61698 33.0933 4.49578 32.5575 4.50002H13.5911C13.2928 4.50002 13.0066 4.61855 12.7956 4.82953C12.5847 5.04051 12.4661 5.32666 12.4661 5.62502C12.4661 5.92339 12.5847 6.20954 12.7956 6.42052C13.0066 6.6315 13.2928 6.75002 13.5911 6.75002H32.5575C32.7329 6.7485 32.9064 6.78651 33.0651 6.86124C33.2238 6.93597 33.3637 7.0455 33.4742 7.18168C33.5848 7.31787 33.6633 7.47721 33.7038 7.64788C33.7443 7.81855 33.7459 7.99617 33.7084 8.16752L31.8611 14.7488C31.6684 15.4142 31.2798 16.0063 30.7458 16.4477C30.2119 16.8892 29.5573 17.1596 28.8675 17.2238L12.9431 18.9428C12.5746 18.9822 12.213 19.0703 11.8676 19.2049L9.28575 2.8519C9.16414 2.05595 8.76069 1.33016 8.14886 0.806712C7.53704 0.283265 6.75755 -0.00301036 5.95237 2.38745e-05H1.125C0.826631 2.38745e-05 0.540483 0.11855 0.329505 0.329529C0.118526 0.540507 0 0.826655 0 1.12502C0 1.42339 0.118526 1.70954 0.329505 1.92052C0.540483 2.1315 0.826631 2.25002 1.125 2.25002ZM32.625 32.625C32.625 31.9575 32.4271 31.305 32.0562 30.75C31.6854 30.195 31.1583 29.7624 30.5416 29.5069C29.9249 29.2515 29.2463 29.1846 28.5916 29.3149C27.9369 29.4451 27.3355 29.7665 26.8635 30.2385C26.3915 30.7105 26.0701 31.3119 25.9398 31.9666C25.8096 32.6213 25.8765 33.2999 26.1319 33.9166C26.3874 34.5333 26.8199 35.0604 27.375 35.4312C27.93 35.8021 28.5825 36 29.25 36C30.1451 36 31.0036 35.6444 31.6365 35.0115C32.2694 34.3786 32.625 33.5201 32.625 32.625ZM28.125 32.625C28.125 32.4025 28.191 32.185 28.3146 32C28.4382 31.815 28.6139 31.6708 28.8195 31.5857C29.025 31.5005 29.2512 31.4782 29.4695 31.5216C29.6877 31.565 29.8882 31.6722 30.0455 31.8295C30.2028 31.9869 30.31 32.1873 30.3534 32.4055C30.3968 32.6238 30.3745 32.85 30.2894 33.0555C30.2042 33.2611 30.06 33.4368 29.875 33.5604C29.69 33.684 29.4725 33.75 29.25 33.75C28.9516 33.75 28.6655 33.6315 28.4545 33.4205C28.2435 33.2095 28.125 32.9234 28.125 32.625ZM18 32.625C18 31.9575 17.8021 31.305 17.4312 30.75C17.0604 30.195 16.5333 29.7624 15.9166 29.5069C15.2999 29.2515 14.6213 29.1846 13.9666 29.3149C13.3119 29.4451 12.7105 29.7665 12.2385 30.2385C11.7665 30.7105 11.4451 31.3119 11.3148 31.9666C11.1846 32.6213 11.2515 33.2999 11.5069 33.9166C11.7624 34.5333 12.1949 35.0604 12.75 35.4312C13.305 35.8021 13.9575 36 14.625 36C15.5201 36 16.3786 35.6444 17.0115 35.0115C17.6444 34.3786 18 33.5201 18 32.625ZM13.5 32.625C13.5 32.4025 13.566 32.185 13.6896 32C13.8132 31.815 13.9889 31.6708 14.1945 31.5857C14.4 31.5005 14.6262 31.4782 14.8445 31.5216C15.0627 31.565 15.2632 31.6722 15.4205 31.8295C15.5778 31.9869 15.685 32.1873 15.7284 32.4055C15.7718 32.6238 15.7495 32.85 15.6644 33.0555C15.5792 33.2611 15.435 33.4368 15.25 33.5604C15.065 33.684 14.8475 33.75 14.625 33.75C14.3266 33.75 14.0405 33.6315 13.8295 33.4205C13.6185 33.2095 13.5 32.9234 13.5 32.625Z" fill="black"/>
</g>
<defs>
<clipPath id="clip0_22_1146">
<rect width="36" height="36" fill="white"/>
</clipPath>
</defs>
</svg>
