<svg width="43" height="43" viewBox="0 0 43 43" fill="none" xmlns="http://www.w3.org/2000/svg">
<path d="M24.1875 15.265C24.6903 14.6906 25.3101 14.2303 26.0054 13.9151C26.7007 13.5999 27.4554 13.4371 28.2188 13.4375V21.5C28.2209 22.2121 28.5047 22.8945 29.0082 23.398C29.5118 23.9015 30.1941 24.1854 30.9062 24.1875H41.6562V30.9063C41.6562 32.3318 41.09 33.6989 40.0819 34.7069C39.0739 35.715 37.7068 36.2812 36.2812 36.2812H4.03125C3.31913 36.2791 2.63679 35.9953 2.13325 35.4918C1.62971 34.9882 1.34588 34.3059 1.34375 33.5938V29.5625C1.34588 28.8504 1.62971 28.168 2.13325 27.6645C2.63679 27.161 3.31913 26.8771 4.03125 26.875H17.4688C18.8943 26.875 20.2614 26.3087 21.2694 25.3007C22.2775 24.2927 22.8438 22.9255 22.8438 21.5V18.8125C22.8456 17.506 23.3233 16.2449 24.1875 15.265Z" fill="#C3BEC6"/>
<path d="M41.6562 18.8125V24.1875H30.9062C30.1941 24.1854 29.5118 23.9015 29.0082 23.398C28.5047 22.8945 28.2209 22.2121 28.2188 21.5V13.4375H36.2812C37.7068 13.4375 39.0739 14.0038 40.0819 15.0118C41.09 16.0198 41.6562 17.387 41.6562 18.8125Z" fill="#BDEFFC"/>
<path d="M36.2812 20.1562C34.857 20.152 33.4923 19.5843 32.4852 18.5773C31.4782 17.5702 30.9105 16.2055 30.9062 14.7812V13.4375H28.2188V21.5C28.2209 22.2121 28.5047 22.8945 29.0082 23.398C29.5118 23.9015 30.1941 24.1854 30.9062 24.1875H41.6562V20.1562H36.2812Z" fill="#9DDCED"/>
<path d="M24.1875 8.0625V15.265C23.3233 16.2449 22.8456 17.506 22.8438 18.8125V21.5C22.8438 22.9255 22.2775 24.2927 21.2694 25.3007C20.2614 26.3087 18.8943 26.875 17.4688 26.875H8.0625C6.65767 26.8754 5.30853 26.3257 4.30393 25.3437C3.29933 24.3617 2.71911 23.0254 2.6875 21.6209V9.40625C2.6875 7.98071 3.25379 6.61356 4.2618 5.60555C5.26981 4.59754 6.63696 4.03125 8.0625 4.03125H20.1562C21.2254 4.03125 22.2508 4.45597 23.0068 5.21198C23.7628 5.96798 24.1875 6.99335 24.1875 8.0625Z" fill="#D1945C"/>
<path d="M21.5 20.1562H14.7812C12.6449 20.1499 10.5979 19.2984 9.08725 17.7877C7.57662 16.2771 6.72513 14.2301 6.71875 12.0937V4.2207C5.56683 4.5155 4.54563 5.18495 3.81585 6.12369C3.08606 7.06244 2.68913 8.21719 2.6875 9.40623V21.6209C2.68786 23.0143 3.24152 24.3505 4.22677 25.3357C5.21202 26.321 6.54821 26.8746 7.94156 26.875H17.4688C18.8943 26.875 20.2614 26.3087 21.2694 25.3007C22.2775 24.2927 22.8438 22.9255 22.8438 21.5V19.9668C22.4057 20.0868 21.9541 20.1504 21.5 20.1562Z" fill="#C9874B"/>
<path d="M17.4688 4.03125H9.40625V10.75H17.4688V4.03125Z" fill="#BDEFFC"/>
<path d="M12.0938 4.03125H9.40625V10.75H12.0938V4.03125Z" fill="#9DDCED"/>
<path d="M28.2188 38.9688C29.703 38.9688 30.9062 37.7655 30.9062 36.2812C30.9062 34.797 29.703 33.5938 28.2188 33.5938C26.7345 33.5938 25.5312 34.797 25.5312 36.2812C25.5312 37.7655 26.7345 38.9688 28.2188 38.9688Z" fill="#655E66"/>
<path d="M9.40625 38.9688C10.8905 38.9688 12.0938 37.7655 12.0938 36.2812C12.0938 34.797 10.8905 33.5938 9.40625 33.5938C7.92198 33.5938 6.71875 34.797 6.71875 36.2812C6.71875 37.7655 7.92198 38.9688 9.40625 38.9688Z" fill="#655E66"/>
<path d="M4.03125 26.875H20.1562C20.1562 27.9442 19.7315 28.9695 18.9755 29.7255C18.2195 30.4815 17.1942 30.9062 16.125 30.9062H1.34375V29.5625C1.34375 28.8497 1.6269 28.1662 2.1309 27.6622C2.6349 27.1581 3.31848 26.875 4.03125 26.875Z" fill="#AC9FB5"/>
<path d="M36.2812 12.4063H28.2188C26.4375 12.4084 24.7298 13.117 23.4702 14.3765C22.2107 15.6361 21.5021 17.3438 21.5 19.125V21.8125C21.5 22.8817 21.0753 23.907 20.3193 24.663C19.5633 25.4191 18.5379 25.8438 17.4688 25.8438H8.0625C6.99335 25.8438 5.96798 25.4191 5.21198 24.663C4.45597 23.907 4.03125 22.8817 4.03125 21.8125V9.71877C4.03125 8.64962 4.45597 7.62425 5.21198 6.86825C5.96798 6.11224 6.99335 5.68752 8.0625 5.68752V11.0625C8.0625 11.4189 8.20407 11.7607 8.45608 12.0127C8.70808 12.2647 9.04987 12.4063 9.40625 12.4063H17.4688C17.8251 12.4063 18.1669 12.2647 18.4189 12.0127C18.6709 11.7607 18.8125 11.4189 18.8125 11.0625V5.68752C19.7915 5.68041 20.7392 6.03181 21.4769 6.67542C22.2146 7.31904 22.6912 8.21038 22.8169 9.18127C22.8178 9.35773 22.8534 9.5323 22.9217 9.69499C22.9901 9.85768 23.0898 10.0053 23.2152 10.1295C23.3406 10.2536 23.4892 10.3519 23.6526 10.4186C23.816 10.4853 23.9909 10.5192 24.1673 10.5183C24.3438 10.5174 24.5184 10.4818 24.6811 10.4134C24.8438 10.3451 24.9914 10.2454 25.1155 10.12C25.2397 9.99457 25.3379 9.84594 25.4047 9.68258C25.4714 9.51921 25.5053 9.3443 25.5044 9.16783C25.5069 9.12308 25.5069 9.07822 25.5044 9.03346C25.3366 7.37664 24.5587 5.84142 23.3219 4.72631C22.0851 3.6112 20.4778 2.99589 18.8125 3.00002H8.0625C6.28123 3.00215 4.57353 3.71071 3.31398 4.97025C2.05444 6.2298 1.34588 7.9375 1.34375 9.71877V21.9644C1.37978 23.4533 1.9118 24.8877 2.85547 26.04C2.03181 26.2895 1.30994 26.7968 0.795955 27.4871C0.281971 28.1774 0.00298396 29.0144 0 29.875L0 33.9063C0 34.9754 0.42472 36.0008 1.18073 36.7568C1.93673 37.5128 2.9621 37.9375 4.03125 37.9375H5.62225C5.93923 38.8341 6.56297 39.5897 7.38321 40.0709C8.20345 40.5521 9.16738 40.7278 10.1046 40.567C11.0419 40.4062 11.8921 39.9192 12.5051 39.1921C13.118 38.4651 13.4542 37.5447 13.4542 36.5938C13.4542 35.6428 13.118 34.7225 12.5051 33.9954C11.8921 33.2684 11.0419 32.7814 10.1046 32.6206C9.16738 32.4598 8.20345 32.6355 7.38321 33.1166C6.56297 33.5978 5.93923 34.3535 5.62225 35.25H4.03125C3.67487 35.25 3.33308 35.1084 3.08108 34.8564C2.82907 34.6044 2.6875 34.2627 2.6875 33.9063V29.875C2.6875 29.5186 2.82907 29.1768 3.08108 28.9248C3.33308 28.6728 3.67487 28.5313 4.03125 28.5313H17.4688C19.25 28.5291 20.9577 27.8206 22.2173 26.561C23.4768 25.3015 24.1854 23.5938 24.1875 21.8125V19.125C24.1912 18.2945 24.4514 17.4853 24.9324 16.8083C25.4135 16.1312 26.0919 15.6192 26.875 15.3424V21.8125C26.875 22.8817 27.2997 23.907 28.0557 24.663C28.8117 25.4191 29.8371 25.8438 30.9062 25.8438H40.3125V31.2188C40.3125 32.2879 39.8878 33.3133 39.1318 34.0693C38.3758 34.8253 37.3504 35.25 36.2812 35.25C35.9249 35.25 35.5831 35.3916 35.3311 35.6436C35.0791 35.8956 34.9375 36.2374 34.9375 36.5938C34.9375 36.9502 35.0791 37.2919 35.3311 37.5439C35.5831 37.7959 35.9249 37.9375 36.2812 37.9375C38.0625 37.9354 39.7702 37.2268 41.0298 35.9673C42.2893 34.7077 42.9979 33 43 31.2188V19.125C42.9979 17.3438 42.2893 15.6361 41.0298 14.3765C39.7702 13.117 38.0625 12.4084 36.2812 12.4063ZM16.125 9.71877H10.75V5.68752H16.125V9.71877ZM9.40625 35.25C9.67202 35.25 9.93182 35.3288 10.1528 35.4765C10.3738 35.6241 10.546 35.834 10.6477 36.0795C10.7494 36.3251 10.776 36.5953 10.7242 36.8559C10.6723 37.1166 10.5444 37.356 10.3564 37.5439C10.1685 37.7319 9.92906 37.8599 9.6684 37.9117C9.40774 37.9636 9.13756 37.9369 8.89202 37.8352C8.64648 37.7335 8.43662 37.5613 8.28896 37.3403C8.14131 37.1193 8.0625 36.8595 8.0625 36.5938C8.0625 36.2374 8.20407 35.8956 8.45608 35.6436C8.70808 35.3916 9.04987 35.25 9.40625 35.25ZM30.9062 23.1563C30.5499 23.1563 30.2081 23.0147 29.9561 22.7627C29.7041 22.5107 29.5625 22.1689 29.5625 21.8125V15.0938H36.2812C37.3504 15.0938 38.3758 15.5185 39.1318 16.2745C39.8878 17.0305 40.3125 18.0559 40.3125 19.125V23.1563H30.9062Z" fill="black"/>
<path d="M32.25 36.2813C32.25 35.4839 32.0136 34.7045 31.5706 34.0416C31.1277 33.3787 30.4981 32.862 29.7614 32.5569C29.0248 32.2517 28.2143 32.1719 27.4323 32.3275C26.6503 32.483 25.932 32.8669 25.3682 33.4307C24.8044 33.9945 24.4205 34.7128 24.265 35.4948C24.1094 36.2768 24.1892 37.0873 24.4944 37.8239C24.7995 38.5606 25.3162 39.1902 25.9791 39.6331C26.642 40.0761 27.4214 40.3125 28.2188 40.3125C29.2879 40.3125 30.3133 39.8878 31.0693 39.1318C31.8253 38.3758 32.25 37.3504 32.25 36.2813ZM26.875 36.2813C26.875 36.0155 26.9538 35.7557 27.1015 35.5347C27.2491 35.3137 27.459 35.1415 27.7045 35.0398C27.9501 34.9381 28.2202 34.9115 28.4809 34.9633C28.7416 35.0152 28.981 35.1431 29.1689 35.3311C29.3569 35.519 29.4848 35.7584 29.5367 36.0191C29.5885 36.2798 29.5619 36.5499 29.4602 36.7955C29.3585 37.041 29.1863 37.2509 28.9653 37.3985C28.7443 37.5462 28.4845 37.625 28.2188 37.625C27.8624 37.625 27.5206 37.4834 27.2686 37.2314C27.0166 36.9794 26.875 36.6376 26.875 36.2813ZM17.4688 37.625H20.1562C20.5126 37.625 20.8544 37.4834 21.1064 37.2314C21.3584 36.9794 21.5 36.6376 21.5 36.2813C21.5 35.9249 21.3584 35.5831 21.1064 35.3311C20.8544 35.0791 20.5126 34.9375 20.1562 34.9375H17.4688C17.1124 34.9375 16.7706 35.0791 16.5186 35.3311C16.2666 35.5831 16.125 35.9249 16.125 36.2813C16.125 36.6376 16.2666 36.9794 16.5186 37.2314C16.7706 37.4834 17.1124 37.625 17.4688 37.625Z" fill="black"/>
</svg>
