<svg width="31" height="30" viewBox="0 0 31 30" fill="none" xmlns="http://www.w3.org/2000/svg">
<path d="M2 13C0.895431 13 0 13.8954 0 15C0 16.1046 0.895431 17 2 17V13ZM30.4142 16.4142C31.1953 15.6332 31.1953 14.3668 30.4142 13.5858L17.6863 0.857864C16.9052 0.0768158 15.6389 0.0768158 14.8579 0.857864C14.0768 1.63891 14.0768 2.90524 14.8579 3.68629L26.1716 15L14.8579 26.3137C14.0768 27.0948 14.0768 28.3611 14.8579 29.1421C15.6389 29.9232 16.9052 29.9232 17.6863 29.1421L30.4142 16.4142ZM2 17H29V13H2V17Z" fill="black"/>
</svg>
